<svg width="44" height="44" viewBox="0 0 44 44" fill="none" xmlns="http://www.w3.org/2000/svg">
<circle cx="22" cy="22" r="22" fill="white"/>
<path d="M22.0082 38.6715C12.8034 38.6715 5.34149 31.2097 5.34149 22.0049C5.34149 12.8002 12.8034 5.33826 22.0082 5.33826C31.2129 5.33826 38.6749 12.8002 38.6749 22.0049C38.6749 31.2097 31.2129 38.6715 22.0082 38.6715ZM16.1748 25.3382V28.6715H20.3415V32.0049H23.6749V28.6715H25.3415C27.6427 28.6715 29.5082 26.806 29.5082 24.5049C29.5082 22.2037 27.6427 20.3382 25.3415 20.3382H18.6749C18.2146 20.3382 17.8415 19.9652 17.8415 19.5049C17.8415 19.0447 18.2146 18.6715 18.6749 18.6715H27.8415V15.3383H23.6749V12.0049H20.3415V15.3383H18.6749C16.3736 15.3383 14.5082 17.2037 14.5082 19.5049C14.5082 21.806 16.3736 23.6715 18.6749 23.6715H25.3415C25.8017 23.6715 26.1749 24.0447 26.1749 24.5049C26.1749 24.9652 25.8017 25.3382 25.3415 25.3382H16.1748Z" fill="#FFCD00"/>
</svg>
